<svg role="img" viewBox="0 0 24 24" xmlns="http://www.w3.org/2000/svg"><title>Generic HTTP</title><path d="M12 0C5.373 0 0 5.373 0 12s5.373 12 12 12 12-5.373 12-12S18.627 0 12 0zm0 2.16c1.34 0 2.93 1.78 3.79 4.7L12 6.7l-3.79.16C9.07 3.94 10.66 2.16 12 2.16zM5.99 4.69C5.21 5.71 4.66 6.96 4.4 8.34l-1.94-.36C3.29 6.62 4.55 5.45 5.99 4.69zm12.02 0c1.44.76 2.7 1.93 3.53 3.29l-1.94.36c-.26-1.38-.81-2.63-1.59-3.65zM12 8.4c1.32 0 2.6.06 3.79.18.13.97.21 1.97.21 3.04 0 1.07-.08 2.07-.21 3.04A39.7 39.7 0 0 1 12 14.84a39.7 39.7 0 0 1-3.79-.18C8.08 13.69 8 12.69 8 11.62c0-1.07.08-2.07.21-3.04A39.7 39.7 0 0 1 12 8.4zM4 11.62c0-.7.07-1.39.18-2.06l1.96.36c-.06.55-.1 1.12-.1 1.7s.04 1.15.1 1.7l-1.96.36C4.07 13.01 4 12.32 4 11.62zm14.18 0c0-.58-.04-1.15-.1-1.7l1.96-.36c.11.67.18 1.36.18 2.06s-.07 1.39-.18 2.06l-1.96-.36c.06-.55.1-1.12.1-1.7zM5.99 18.55c-1.44-.76-2.7-1.93-3.53-3.29l1.94-.36c.26 1.38.81 2.63 1.59 3.65zm12.02 0c.78-1.02 1.33-2.27 1.59-3.65l1.94.36c-.83 1.36-2.09 2.53-3.53 3.29zM12 21.08c-1.34 0-2.93-1.78-3.79-4.7L12 16.54l3.79.16c-.86 2.6-2.45 4.38-3.79 4.38z"/></svg>
