<svg role="img" viewBox="0 0 24 24" xmlns="http://www.w3.org/2000/svg"><title>Govee</title><path d="M12 0C5.373 0 0 5.373 0 12s5.373 12 12 12 12-5.373 12-12S18.627 0 12 0zm0 4.8c2.49 0 4.74.96 6.42 2.53l-1.7 1.7c-1.24-1.13-2.9-1.83-4.72-1.83-3.86 0-7 3.14-7 7 0 1.83.7 3.49 1.84 4.74l-1.7 1.7C3.56 18.96 2.6 16.7 2.6 14.2c0-5.19 4.21-9.4 9.4-9.4zm.42 4.8h6v8.4c0 .55-.45 1-1 1H12c-2.65 0-4.8-2.15-4.8-4.8s2.15-4.6 4.8-4.6h.42v-.2c0-.66.54-1.2 1.2-1.2H17c.13 0 .25.04.36.1l-.36.07v-.6h-4.58zm-.42 2.8c-1.32 0-2.4 1.08-2.4 2.4s1.08 2.4 2.4 2.4h4.42v-4.8H12z"/></svg>
