<svg role="img" viewBox="0 0 24 24" xmlns="http://www.w3.org/2000/svg"><title>Matter</title><path d="M12 1.5c-1.05 0-2.05.42-2.79 1.16l-1.62 1.62c-.26.26-.61.4-.97.4H4.32c-.76 0-1.39.62-1.39 1.39v2.3c0 .36-.14.71-.4.97L.91 9.21c-1.55 1.55-1.55 4.05 0 5.59l1.62 1.62c.26.26.4.61.4.97v2.3c0 .77.63 1.39 1.39 1.39h2.3c.36 0 .71.14.97.4l1.62 1.62c1.54 1.54 4.05 1.54 5.59 0l1.62-1.62c.26-.26.61-.4.97-.4h2.3c.77 0 1.39-.62 1.39-1.39v-2.3c0-.36.14-.71.4-.97l1.62-1.62c1.55-1.54 1.55-4.05 0-5.59l-1.62-1.62c-.26-.26-.4-.61-.4-.97V6.07c0-.77-.62-1.39-1.39-1.39h-2.3c-.36 0-.71-.14-.97-.4L14.79 2.66C14.05 1.92 13.05 1.5 12 1.5zm-3.95 7.07h2.27l1.68 4.13 1.68-4.13h2.27l-2.94 6.86h-2.02L8.05 8.57z"/></svg>
