<svg role="img" viewBox="0 0 24 24" xmlns="http://www.w3.org/2000/svg"><title>Salute</title><path d="M12 1.5C6.2 1.5 1.5 6.2 1.5 12S6.2 22.5 12 22.5 22.5 17.8 22.5 12 17.8 1.5 12 1.5zm0 2.7c4.31 0 7.8 3.49 7.8 7.8s-3.49 7.8-7.8 7.8c-1.78 0-3.42-.6-4.74-1.6l1.74-1.74c.86.55 1.89.87 2.99.87 3.05 0 5.52-2.47 5.52-5.52 0-1.1-.32-2.13-.87-2.99l1.74-1.74c1.01 1.32 1.6 2.96 1.6 4.74 0-4.31-3.49-7.8-7.8-7.8-1.78 0-3.42.59-4.74 1.6L7.18 5.91C8.5 4.79 10.18 4.2 12 4.2zm-2.62 4.06l3.31 3.31-3.31 3.31-1.65-1.65 1.66-1.66-1.66-1.66 1.65-1.65zm6.62 1.74L12 13.5l-1.5-1.5L14 8.5l2 1.5z"/></svg>
