<svg role="img" viewBox="0 0 24 24" xmlns="http://www.w3.org/2000/svg"><title>Tuya Smart</title><path d="M12 0C5.373 0 0 5.373 0 12s5.373 12 12 12 12-5.373 12-12S18.627 0 12 0zm-1.06 4.78c2.54-.42 5.18.42 7.04 2.27 1.86 1.86 2.7 4.5 2.27 7.04-.42 2.55-2.04 4.74-4.39 5.95-2.34 1.21-5.13 1.21-7.47 0-2.34-1.21-3.97-3.4-4.39-5.95L4.5 12.3l1.96.32c.31 1.86 1.5 3.46 3.21 4.34 1.71.88 3.74.88 5.45 0 1.71-.88 2.91-2.48 3.22-4.35.31-1.86-.3-3.78-1.66-5.13-1.36-1.36-3.27-1.97-5.13-1.66-1.86.31-3.46 1.5-4.35 3.22-.88 1.71-.88 3.74 0 5.45L5.62 15.5c-1.21-2.34-1.21-5.13 0-7.47C6.83 5.69 9.02 4.07 11.57 3.65l-.63 1.13z"/></svg>
