<svg role="img" viewBox="0 0 24 24" xmlns="http://www.w3.org/2000/svg"><title>Z-Wave</title><path d="M12 0C5.373 0 0 5.373 0 12s5.373 12 12 12 12-5.373 12-12S18.627 0 12 0zm-5.4 6h10.8v2.04L9.84 16.2H17.4V18H6V15.96l7.56-8.16H6.6V6zm.6 6.6c.66-.99 1.5-1.5 2.4-1.5.78 0 1.32.36 1.68.96.36-.6.96-.96 1.68-.96.78 0 1.32.36 1.68.96.36-.6.96-.96 1.68-.96.9 0 1.74.51 2.4 1.5l-.96.66c-.42-.6-.9-.96-1.44-.96-.6 0-1.02.42-1.2 1.08l-.84-.06c-.12-.6-.54-1.02-1.14-1.02-.6 0-1.02.42-1.2 1.08l-.84-.06c-.12-.6-.54-1.02-1.14-1.02-.54 0-1.02.36-1.44.96L7.2 12.6z"/></svg>
